<?xml version="1.0" encoding="iso-8859-1"?>
<!-- Uploaded to: SVG Repo, www.svgrepo.com, Generator: SVG Repo Mixer Tools -->
<svg height="800px" width="800px" version="1.1" id="Layer_1" xmlns="http://www.w3.org/2000/svg" xmlns:xlink="http://www.w3.org/1999/xlink" 
	 viewBox="0 0 512 512" xml:space="preserve">
<path style="fill:#494E58;" d="M256,371.2c-77.636,0-140.8-80.393-140.8-179.2S178.364,12.8,256,12.8S396.8,93.193,396.8,192
	S333.636,371.2,256,371.2z M256,272c-28.049,0-44.8,8.371-44.8,22.4s16.751,22.4,44.8,22.4c28.049,0,44.8-8.371,44.8-22.4
	S284.049,272,256,272z M265.463,189.329c9.694,10.65,24.9,16.759,41.737,16.759l10.837,0.094c27.503,0,40.363-12.638,40.363-39.774
	c0-27.145-12.868-39.782-40.482-39.782l-10.615,0.102c-16.93,0-32.145,6.11-41.83,16.759L256,153.882l-9.463-10.411
	c-9.694-10.65-24.9-16.751-41.737-16.751l-10.846-0.102c-27.486,0-40.354,12.638-40.354,39.782
	c0,27.136,12.868,39.774,40.482,39.774l10.615-0.094c16.93,0,32.145-6.11,41.83-16.759L256,178.918L265.463,189.329z"/>
<path style="fill:#FFE7E5;" d="M307.2,206.08c-28.706,0-51.2-17.434-51.2-39.68s22.494-39.68,51.2-39.68l10.718-0.094
	c12.177,0,40.482,0,40.482,39.774s-28.365,39.774-40.482,39.774L307.2,206.08z"/>
<path style="fill:#FF9F99;" d="M256,316.8c-10.505,0-44.8-1.613-44.8-22.4c0-20.787,34.295-22.4,44.8-22.4
	c10.505,0,44.8,1.613,44.8,22.4C300.8,315.187,266.505,316.8,256,316.8z"/>
<path style="fill:#FFE7E5;" d="M194.082,206.174c-12.117,0-40.482,0-40.482-39.774s28.365-39.774,40.482-39.774l10.718,0.094
	c28.706,0,51.2,17.434,51.2,39.68s-22.494,39.68-51.2,39.68L194.082,206.174z"/>
<path style="fill:#919CB0;" d="M51.2,499.2c-21.973,0-38.4-20.275-38.4-38.4c0-26.18,17.425-34.867,84.036-63.94
	c17.946-7.834,37.7-16.538,60.493-27.085c0.896-0.452,34.748-18.142,34.748-18.142l6.093,3.516
	c18.458,10.65,37.914,16.051,57.83,16.051c19.584,0,38.716-5.205,56.875-15.471l5.837-3.302c0,0,34.176,16.504,34.714,16.759
	c23.083,10.709,43.324,19.627,61.739,27.665C481.775,425.933,499.2,434.62,499.2,460.8c0,18.125-16.427,38.4-38.4,38.4H51.2z"/>
<g>
	<path style="fill:#573A32;" d="M370.142,362.829c-0.418-0.196-14.208-6.844-26.846-12.945C383.334,315.221,409.6,257.468,409.6,192
		C409.6,85.965,340.83,0,256,0c-84.838,0-153.6,85.965-153.6,192c0,65.05,25.95,122.445,65.545,157.175
		c-10.342,5.393-26.359,13.773-27.127,14.123C36.796,410.684,0,417.536,0,460.8C0,486.4,22.921,512,51.2,512h409.6
		c28.279,0,51.2-25.6,51.2-51.2C512,417.391,474.957,410.641,370.142,362.829z M128,192c0-91.75,57.421-166.4,128-166.4
		S384,100.25,384,192s-57.421,166.4-128,166.4S128,283.75,128,192z M460.8,486.4H51.2c-14.182,0-25.6-14.003-25.6-25.6
		c0-16.768,8.559-22.622,76.348-52.207c17.442-7.612,37.734-16.546,60.749-27.196c0.802-0.375,18.97-9.89,29.073-15.155
		C211.337,377.523,233.037,384,256,384c22.545,0,43.887-6.221,63.172-17.126c13.107,6.332,28.433,13.739,28.817,13.918
		c23.561,10.923,44.288,20.045,62.063,27.802c67.789,29.585,76.348,35.439,76.348,52.207C486.4,472.397,474.982,486.4,460.8,486.4z"
		/>
	<path style="fill:#573A32;" d="M199.552,218.931l5.248-0.051c21.265,0,39.629-8.218,51.2-20.932
		c11.571,12.715,29.935,20.932,51.2,20.932l5.248,0.051l5.47,0.051c44.032,0,53.282-28.595,53.282-52.574
		s-9.242-52.582-53.282-52.582l-5.47,0.051l-5.248,0.043c-21.265,0-39.629,8.218-51.2,20.932
		c-11.571-12.715-29.935-20.932-51.2-20.932l-5.248-0.051l-5.47-0.051c-44.032,0-53.282,28.595-53.282,52.582
		s9.242,52.574,53.282,52.574L199.552,218.931z M307.2,139.52c3.721,0,7.322-0.102,10.718-0.102
		c15.991,0,27.682,2.176,27.682,26.974s-11.691,26.974-27.682,26.974c-3.405,0-6.997-0.102-10.718-0.102
		c-21.205,0-38.4-12.032-38.4-26.88C268.8,151.535,285.995,139.52,307.2,139.52z M166.4,166.4c0-24.806,11.691-26.974,27.682-26.974
		c3.405,0,6.997,0.102,10.718,0.102c21.205,0,38.4,12.032,38.4,26.88c0,14.848-17.195,26.88-38.4,26.88
		c-3.721,0-7.313,0.102-10.718,0.102C178.091,193.374,166.4,191.198,166.4,166.4z"/>
	<path style="fill:#573A32;" d="M256,259.2c-53.444,0-57.6,26.94-57.6,35.2s4.156,35.2,57.6,35.2s57.6-26.94,57.6-35.2
		S309.444,259.2,256,259.2z M256,304c-17.673,0-32-4.301-32-9.6c0-5.299,14.327-9.6,32-9.6c17.673,0,32,4.301,32,9.6
		C288,299.699,273.673,304,256,304z"/>
</g>
</svg>